<svg width="440" height="357" viewBox="0 0 440 357" fill="none" xmlns="http://www.w3.org/2000/svg">
<g id="undraw_professor_8lrt 1" clip-path="url(#clip0)">
<g id="Group 1">
<path id="Vector" d="M128.555 0L58.4783 39.6328C59.6766 41.7868 60.4486 44.1701 60.7486 46.6414C61.0486 49.1127 60.8704 51.6217 60.2247 54.0198C59.579 56.4179 58.4788 58.6562 56.9894 60.6022C55.5 62.5482 53.6516 64.1622 51.5539 65.3486C49.4561 66.5351 47.1516 67.2698 44.7769 67.5092C42.4022 67.7486 40.0056 67.4879 37.7292 66.7425C35.4527 65.9971 33.3428 64.7822 31.5243 63.1697C29.7058 61.5572 28.2158 59.58 27.1425 57.3552L3.2485 70.8689L65.1414 190.179L190.447 119.31L128.555 0Z" fill="#F2F2F2"/>
<path id="Vector_2" d="M41.9977 64.0854C49.9874 64.0854 56.4644 57.3226 56.4644 48.9802C56.4644 40.6378 49.9874 33.875 41.9977 33.875C34.008 33.875 27.5311 40.6378 27.5311 48.9802C27.5311 57.3226 34.008 64.0854 41.9977 64.0854Z" fill="#1C4561"/>
<path id="Vector_3" d="M304.518 319.401L380.285 293.596C379.478 291.252 379.13 288.763 379.261 286.275C379.392 283.788 380 281.354 381.049 279.116C382.098 276.879 383.566 274.884 385.367 273.25C387.168 271.616 389.264 270.376 391.532 269.603C393.801 268.831 396.194 268.542 398.571 268.753C400.948 268.964 403.261 269.671 405.371 270.832C407.482 271.994 409.348 273.586 410.859 275.514C412.369 277.442 413.494 279.667 414.166 282.057L440 273.258L399.701 144.26L264.219 190.403L304.518 319.401Z" fill="#F2F2F2"/>
<path id="Vector_4" d="M398.109 302.607C406.098 302.607 412.575 295.844 412.575 287.501C412.575 279.159 406.098 272.396 398.109 272.396C390.119 272.396 383.642 279.159 383.642 287.501C383.642 295.844 390.119 302.607 398.109 302.607Z" fill="#1C4561"/>
<path id="Vector_5" d="M401.094 70.7706H51.2743V236.714H401.094V70.7706Z" fill="#3F3D56"/>
<path id="Vector_6" d="M395.323 76.7965H57.0454V227.444H395.323V76.7965Z" fill="white"/>
<path id="Vector_7" d="M360.918 220.259H328.067V231.847H360.918V220.259Z" fill="#3F3D56"/>
<path id="Vector_8" d="M326.291 229.066H302.319V232.311H326.291V229.066Z" fill="#1C4561"/>
<path id="Vector_9" d="M84.5693 133.811H213.754L233.782 143.999L265.694 160.232L286.559 119.441H345.602" stroke="#3F3D56" stroke-width="2" stroke-miterlimit="10"/>
<path id="Vector_10" d="M135.366 133.811L144.944 157.451H168.473" stroke="#3F3D56" stroke-width="2" stroke-miterlimit="10"/>
<path id="Vector_11" d="M171.273 133.811L203.987 115.27H227.072" stroke="#3F3D56" stroke-width="2" stroke-miterlimit="10"/>
<path id="Vector_12" d="M135.178 137.982C137.384 137.982 139.173 136.115 139.173 133.811C139.173 131.507 137.384 129.639 135.178 129.639C132.971 129.639 131.182 131.507 131.182 133.811C131.182 136.115 132.971 137.982 135.178 137.982Z" fill="#1C4561"/>
<path id="Vector_13" d="M172.468 137.982C174.675 137.982 176.464 136.115 176.464 133.811C176.464 131.507 174.675 129.639 172.468 129.639C170.262 129.639 168.473 131.507 168.473 133.811C168.473 136.115 170.262 137.982 172.468 137.982Z" fill="#1C4561"/>
<path id="Vector_14" d="M233.731 144.008L236.394 185.262H259.479" stroke="#3F3D56" stroke-width="2" stroke-miterlimit="10"/>
<path id="Vector_15" d="M278.191 135.801L252.82 115.27H276.792" stroke="#3F3D56" stroke-width="2" stroke-miterlimit="10"/>
<path id="Vector_16" d="M320.099 119.441L344.714 139.837H367.799" stroke="#3F3D56" stroke-width="2" stroke-miterlimit="10"/>
<path id="Vector_17" d="M233.731 148.18C235.937 148.18 237.726 146.312 237.726 144.008C237.726 141.704 235.937 139.836 233.731 139.836C231.524 139.836 229.736 141.704 229.736 144.008C229.736 146.312 231.524 148.18 233.731 148.18Z" fill="#1C4561"/>
<path id="Vector_18" d="M319.854 123.613C322.061 123.613 323.849 121.745 323.849 119.441C323.849 117.137 322.061 115.269 319.854 115.269C317.647 115.269 315.859 117.137 315.859 119.441C315.859 121.745 317.647 123.613 319.854 123.613Z" fill="#1C4561"/>
<path id="Vector_19" d="M278.124 139.836C280.331 139.836 282.12 137.969 282.12 135.665C282.12 133.361 280.331 131.493 278.124 131.493C275.918 131.493 274.129 133.361 274.129 135.665C274.129 137.969 275.918 139.836 278.124 139.836Z" fill="#1C4561"/>
<path id="Vector_20" d="M145.388 161.159H168.473" stroke="#3F3D56" stroke-width="2" stroke-miterlimit="10"/>
<path id="Vector_21" d="M359.383 41.8499C363 41.8499 365.933 38.7877 365.933 35.0103C365.933 31.2328 363 28.1706 359.383 28.1706C355.765 28.1706 352.832 31.2328 352.832 35.0103C352.832 38.7877 355.765 41.8499 359.383 41.8499Z" stroke="#3F3D56" stroke-width="2" stroke-miterlimit="10"/>
<path id="Vector_22" d="M67.4779 357C104.745 357 134.956 351.189 134.956 344.021C134.956 336.853 104.745 331.042 67.4779 331.042C30.2109 331.042 0 336.853 0 344.021C0 351.189 30.2109 357 67.4779 357Z" fill="#F2F2F2"/>
<path id="Vector_23" d="M113.82 228.825L101.781 235.167L102.561 236.787L114.598 230.445L113.82 228.825Z" fill="#1C4561"/>
<path id="Vector_24" d="M77.2503 108.61C77.2503 108.61 76.1687 120.468 75.6278 121.033C75.087 121.598 83.7401 132.327 83.7401 132.327L91.3115 124.986C91.3115 124.986 90.7706 114.257 92.3931 111.998C94.0155 109.739 77.2503 108.61 77.2503 108.61Z" fill="#FBBEBE"/>
<path id="Vector_25" opacity="0.1" d="M77.2503 108.61C77.2503 108.61 76.1687 120.468 75.6278 121.033C75.087 121.598 83.7401 132.327 83.7401 132.327L91.3115 124.986C91.3115 124.986 90.7706 114.257 92.3931 111.998C94.0155 109.739 77.2503 108.61 77.2503 108.61Z" fill="black"/>
<path id="Vector_26" d="M57.2403 324.885V335.049L53.4544 335.614L48.0464 333.92L49.6686 323.191L57.2403 324.885Z" fill="#3F3D56"/>
<path id="Vector_27" d="M52.3728 329.967C52.3728 329.967 50.7503 325.45 48.0463 326.014C45.3422 326.579 44.8014 329.967 44.8014 329.967C44.8014 329.967 42.6381 338.437 39.3932 341.261C36.1483 344.084 32.9035 351.425 39.3932 352.555C45.883 353.684 51.2912 350.861 51.2912 350.296C51.2912 349.731 52.9136 346.343 55.6177 345.778C58.3218 345.214 60.485 344.649 60.485 342.39C60.485 340.132 58.8626 337.873 58.8626 337.873C58.8626 337.873 58.3218 327.162 57.2401 328.564C56.4921 329.673 55.9424 330.913 55.6177 332.226L52.3728 329.967Z" fill="#2F2E41"/>
<path id="Vector_28" d="M80.4953 319.803L78.332 328.273L83.74 329.403L86.444 326.579L86.9847 319.238L80.4953 319.803Z" fill="#3F3D56"/>
<path id="Vector_29" d="M79.9544 327.144C79.9544 327.144 82.1176 325.45 83.1993 325.45H84.8217C84.8217 325.45 84.8217 321.497 87.5258 321.497C90.2299 321.497 89.689 324.32 89.689 324.32C89.689 324.32 95.638 333.92 97.2605 335.614C98.8829 337.308 107.536 342.39 100.505 344.649C93.4748 346.908 88.6074 346.908 85.3625 342.955C85.3625 342.955 82.1176 341.261 79.9544 341.261C77.7911 341.261 75.087 340.131 75.087 338.437C75.087 336.743 76.7095 333.355 76.7095 333.355C76.7095 333.355 77.7911 323.191 78.3319 324.32C78.8727 325.45 79.9544 327.144 79.9544 327.144Z" fill="#2F2E41"/>
<path id="Vector_30" d="M56.6993 189.925V208.559C56.6993 208.559 50.7504 244.699 50.7504 256.558C50.7504 268.416 41.5565 324.885 45.883 326.014C50.2096 327.144 60.485 328.838 61.0259 327.144C61.5667 325.45 65.3524 271.804 65.8932 271.24C66.434 270.675 77.7911 226.065 77.7911 226.065L79.9544 226.629L81.036 277.451C81.036 277.451 75.6278 323.191 78.3319 323.191C81.036 323.191 92.3931 322.626 92.3931 319.238C92.3931 315.85 98.3421 253.17 98.3421 253.17C98.3421 253.17 105.373 203.477 102.669 198.395C99.9645 193.313 99.9645 190.489 99.9645 190.489L56.6993 189.925Z" fill="#2F2E41"/>
<path id="Vector_31" d="M86.1737 117.362C92.1474 117.362 96.99 112.306 96.99 106.069C96.99 99.8313 92.1474 94.7749 86.1737 94.7749C80.2 94.7749 75.3574 99.8313 75.3574 106.069C75.3574 112.306 80.2 117.362 86.1737 117.362Z" fill="#FBBEBE"/>
<path id="Vector_32" d="M83.74 125.55C83.74 125.55 76.9798 119.621 76.439 117.362C76.439 117.362 72.9237 121.033 72.9237 121.598C72.9237 122.162 57.7809 123.856 53.9952 128.374C50.2095 132.891 46.9646 142.491 46.9646 142.491L56.1585 160.561C56.1585 160.561 56.6993 170.725 56.6993 171.855C56.6993 172.984 53.9952 191.054 55.0768 191.619C56.1585 192.183 66.9748 197.83 76.1686 196.701C85.3625 195.572 94.5563 193.878 97.2604 193.878C99.9644 193.878 102.128 195.007 102.128 193.878C102.128 192.748 100.505 190.489 100.505 189.36C100.505 188.231 99.9645 185.407 99.9645 183.713C99.9645 182.019 98.8828 179.196 98.8828 176.937C98.8828 174.678 110.781 144.185 110.781 144.185C110.781 144.185 110.24 134.585 101.587 130.068C92.9339 125.55 91.8522 123.856 91.8522 123.856C91.8522 123.856 91.6836 120.468 91.2271 120.468C90.7706 120.468 89.1482 125.55 84.8216 126.115L83.74 125.55Z" fill="#D0CDE1"/>
<path id="Vector_33" d="M54.5359 200.654L58.3218 206.865L68.0563 204.607L61.0257 196.136L54.5359 200.654Z" fill="#FBBEBE"/>
<path id="Vector_34" d="M78.8272 100.586C79.4902 100.292 80.2567 100.53 80.9668 100.405C81.8006 100.258 82.5466 99.6131 83.3886 99.6945C83.7877 99.7718 84.1753 99.9032 84.5417 100.085C84.7255 100.176 84.9249 100.226 85.1279 100.234C85.3309 100.241 85.5333 100.206 85.7229 100.13C85.8132 100.086 85.8931 100.022 85.9567 99.9415C86.0203 99.8615 86.0661 99.7677 86.0907 99.6669C86.1153 99.5661 86.1181 99.4609 86.0989 99.3588C86.0797 99.2568 86.039 99.1605 85.9797 99.0769C86.6921 99.0113 87.3655 98.7086 87.9008 98.2134C88.0075 98.0978 88.1313 98.0008 88.2674 97.9262C88.4261 97.883 88.5917 97.8743 88.7538 97.9006C88.9159 97.927 89.071 97.9879 89.2096 98.0795L90.4472 98.6751C90.7259 98.7779 90.9711 98.961 91.1543 99.2033C91.3015 99.443 91.3303 99.7652 91.5388 99.9487C91.8049 100.183 92.2025 100.068 92.5497 100.091C92.865 100.123 93.158 100.275 93.3732 100.518C93.5884 100.76 93.7108 101.077 93.7172 101.408C93.7123 101.787 93.5802 102.252 93.8674 102.484C94.034 102.619 94.2705 102.597 94.4657 102.68C94.9715 102.894 94.9735 103.63 94.8988 104.194C94.824 104.759 94.861 105.504 95.3809 105.678C95.747 105.8 96.1212 105.539 96.5015 105.481C97.0753 105.393 97.6062 105.768 98.117 106.054C98.6278 106.341 99.3064 106.535 99.7491 106.144C100.161 105.78 100.135 105.114 100.021 104.563C99.8588 103.773 99.5917 103.011 99.2278 102.298C99.0932 102.088 99.0139 101.845 98.9978 101.593C99.0287 101.415 99.0952 101.247 99.193 101.098C99.2908 100.95 99.4176 100.824 99.5651 100.731C100.191 100.214 100.911 99.6938 101.114 98.8881C101.262 98.2967 101.095 97.6731 101.108 97.0619C101.124 96.3181 101.407 95.5776 101.274 94.8467C101.033 93.5218 99.6211 92.8842 98.7096 91.929C97.457 90.6164 97.0503 88.5169 95.5721 87.4917C94.3895 86.6715 92.8426 86.7694 91.4959 86.3002C90.0166 85.7847 88.8257 84.6004 87.3665 84.0258C86.57 83.7191 85.7183 83.6002 84.8726 83.6777C84.0269 83.7551 83.2081 84.027 82.4748 84.4738C82.0394 84.8109 81.5535 85.0702 81.0367 85.241C80.6015 85.2937 80.1617 85.2883 79.7278 85.2252C78.8653 85.1787 78.0058 85.3639 77.2313 85.763C76.9349 85.8867 76.6881 86.1127 76.5319 86.4034C76.2707 87.0093 76.6502 87.9565 76.0775 88.2462C75.8105 88.3812 75.4953 88.2518 75.1987 88.2586C74.6219 88.2719 74.1781 88.7959 73.9036 89.3258C73.6896 89.886 73.3824 90.4023 72.9962 90.8507C72.2911 91.4955 71.0101 91.602 70.8259 92.5616C70.8226 92.9678 70.8447 93.3739 70.8921 93.7771C70.8388 94.6275 69.9673 95.2737 70.0127 96.1245C70.0652 97.1059 71.2594 97.5854 71.5786 98.5101C71.8217 99.2142 71.5018 99.9755 71.2817 100.688C71.0616 101.4 70.9952 102.313 71.5636 102.769C71.7865 102.948 72.0731 103.021 72.3004 103.194C72.8886 103.64 72.8811 104.542 72.8158 105.298C72.7782 105.455 72.778 105.619 72.8152 105.776C72.8525 105.934 72.9261 106.079 73.0295 106.199C73.1266 106.261 73.2352 106.3 73.3479 106.314C73.4606 106.328 73.5749 106.317 73.6832 106.281C74.0363 106.192 74.3683 106.028 74.6586 105.8C74.949 105.572 75.1917 105.284 75.3718 104.954C75.5612 104.627 75.5992 104.339 75.9433 104.166C76.1768 104.048 76.4604 104.153 76.698 104C77.8287 103.273 77.4395 101.2 78.8272 100.586Z" fill="#2F2E41"/>
<path id="Vector_35" d="M48.5871 140.797L46.9646 142.491C46.9646 142.491 37.23 172.984 40.4749 179.76C43.7197 186.537 50.2095 203.477 52.3728 202.912C54.536 202.348 62.1075 197.266 62.1075 196.701C62.1075 196.136 52.9136 180.325 52.9136 180.325C52.9136 180.325 51.832 176.937 52.3728 176.372C52.9136 175.807 52.9136 176.372 52.3728 175.243C51.832 174.113 51.832 175.243 52.9136 174.113C53.9952 172.984 53.9952 172.984 53.9952 172.419C53.9952 171.855 57.2401 157.737 57.2401 157.737L48.5871 140.797Z" fill="#D0CDE1"/>
<path id="Vector_36" d="M56.9695 207.148L68.8678 203.195L70.49 207.148L57.5107 209.971L56.9695 207.148Z" fill="#2F2E41"/>
<path id="Vector_37" opacity="0.1" d="M56.9695 207.148L68.8678 203.195L70.49 207.148L57.5107 209.971L56.9695 207.148Z" fill="black"/>
<path id="Vector_38" opacity="0.1" d="M73.194 121.88L82.3878 129.785L83.4697 128.091L73.194 121.88Z" fill="black"/>
<path id="Vector_39" opacity="0.1" d="M91.5817 124.139L85.0923 128.091L85.633 129.785L91.5817 124.139Z" fill="black"/>
</g>
<g id="hand">
<path id="Vector_40" d="M111.862 217.03L111.322 220.418C111.322 220.418 112.133 243.852 106.184 236.511C100.235 229.17 104.291 219.288 104.291 219.288L105.913 216.465L111.862 217.03Z" fill="#FBBEBE"/>
</g>
<g id="arm">
<path id="Vector_41" d="M107.536 139.668L110.781 144.185C110.781 144.185 117.271 176.937 116.189 188.795C115.107 200.654 114.026 209.689 114.026 209.689C114.026 209.689 116.189 218.159 114.566 218.159C112.944 218.159 103.209 218.724 103.209 217.03C103.209 215.336 104.291 204.607 104.291 204.607L101.587 179.76L95.6379 171.29L107.536 139.668Z" fill="#D0CDE1"/>
</g>
</g>
<defs>
<clipPath id="clip0">
<rect width="440" height="357" fill="white"/>
</clipPath>
</defs>
</svg>
